<?xml version="1.0" encoding="UTF-8"?>
<svg width="118px" height="24px" viewBox="0 0 118 24" version="1.1" xmlns="http://www.w3.org/2000/svg" xmlns:xlink="http://www.w3.org/1999/xlink">
    <title>beebom</title>
    <g id="Page-1" stroke="none" stroke-width="1" fill="none" fill-rule="evenodd">
        <g id="beebom" fill="#826294">
            <path d="M14.32,11.352 C15.6213398,11.7146685 16.6293298,12.3759952 17.344,13.336 C18.0586702,14.2960048 18.416,15.4693264 18.416,16.856 C18.416,18.7760096 17.7280069,20.2799946 16.352,21.368 C14.9759931,22.4560054 13.0826787,23 10.672,23 L2.416,23 C1.79733024,23 1.31200176,22.829335 0.96,22.488 C0.60799824,22.146665 0.432,21.6666698 0.432,21.048 L0.432,2.392 C0.432,1.77333024 0.60799824,1.29333504 0.96,0.952 C1.31200176,0.61066496 1.79733024,0.44 2.416,0.44 L10.352,0.44 C12.6986784,0.44 14.53866,0.95732816 15.872,1.992 C17.20534,3.02667184 17.872,4.47199072 17.872,6.328 C17.872,7.52267264 17.5573365,8.55732896 16.928,9.432 C16.2986635,10.306671 15.4293389,10.9466646 14.32,11.352 Z M4.464,9.944 L9.68,9.944 C12.5173475,9.944 13.936,8.88801056 13.936,6.776 C13.936,5.709328 13.5840035,4.92000256 12.88,4.408 C12.1759965,3.89599744 11.1093405,3.64 9.68,3.64 L4.464,3.64 L4.464,9.944 Z M10.224,19.8 C11.7173408,19.8 12.8053299,19.533336 13.488,19 C14.1706701,18.466664 14.512,17.6346723 14.512,16.504 C14.512,15.3733277 14.1653368,14.5306694 13.472,13.976 C12.7786632,13.4213306 11.6960074,13.144 10.224,13.144 L4.464,13.144 L4.464,19.8 L10.224,19.8 Z M34.32,18.712 C34.6826685,18.712 34.9759989,18.8506653 35.2,19.128 C35.4240011,19.4053347 35.536,19.7786643 35.536,20.248 C35.536,20.9093366 35.1413373,21.4639978 34.352,21.912 C33.626663,22.3173354 32.8053379,22.6426654 31.888,22.888 C30.9706621,23.1333346 30.0960042,23.256 29.264,23.256 C26.7466541,23.256 24.7520074,22.5306739 23.28,21.08 C21.8079926,19.6293261 21.072,17.6453459 21.072,15.128 C21.072,13.527992 21.3919968,12.1093395 22.032,10.872 C22.6720032,9.63466048 23.5733275,8.67467008 24.736,7.992 C25.8986725,7.30932992 27.2159926,6.968 28.688,6.968 C30.096007,6.968 31.3226614,7.27733024 32.368,7.896 C33.4133386,8.51466976 34.2239971,9.38932768 34.8,10.52 C35.3760029,11.6506723 35.664,12.9839923 35.664,14.52 C35.664,15.4373379 35.2586707,15.896 34.448,15.896 L25.008,15.896 C25.1360006,17.3680074 25.5519965,18.4506632 26.256,19.144 C26.9600035,19.8373368 27.9839933,20.184 29.328,20.184 C30.0106701,20.184 30.6133307,20.0986675 31.136,19.928 C31.6586693,19.7573325 32.2506634,19.5226682 32.912,19.224 C33.5520032,18.882665 34.0213318,18.712 34.32,18.712 Z M28.784,9.784 C27.6959946,9.784 26.8266699,10.1253299 26.176,10.808 C25.5253301,11.4906701 25.1360006,12.4719936 25.008,13.752 L32.24,13.752 C32.1973331,12.4506602 31.8773363,11.4640034 31.28,10.792 C30.6826637,10.1199966 29.850672,9.784 28.784,9.784 Z M51.312,18.712 C51.6746685,18.712 51.9679989,18.8506653 52.192,19.128 C52.4160011,19.4053347 52.528,19.7786643 52.528,20.248 C52.528,20.9093366 52.1333373,21.4639978 51.344,21.912 C50.618663,22.3173354 49.7973379,22.6426654 48.88,22.888 C47.9626621,23.1333346 47.0880042,23.256 46.256,23.256 C43.7386541,23.256 41.7440074,22.5306739 40.272,21.08 C38.7999926,19.6293261 38.064,17.6453459 38.064,15.128 C38.064,13.527992 38.3839968,12.1093395 39.024,10.872 C39.6640032,9.63466048 40.5653275,8.67467008 41.728,7.992 C42.8906725,7.30932992 44.2079926,6.968 45.68,6.968 C47.088007,6.968 48.3146614,7.27733024 49.36,7.896 C50.4053386,8.51466976 51.2159971,9.38932768 51.792,10.52 C52.3680029,11.6506723 52.656,12.9839923 52.656,14.52 C52.656,15.4373379 52.2506707,15.896 51.44,15.896 L42,15.896 C42.1280006,17.3680074 42.5439965,18.4506632 43.248,19.144 C43.9520035,19.8373368 44.9759933,20.184 46.32,20.184 C47.0026701,20.184 47.6053307,20.0986675 48.128,19.928 C48.6506693,19.7573325 49.2426634,19.5226682 49.904,19.224 C50.5440032,18.882665 51.0133318,18.712 51.312,18.712 Z M45.776,9.784 C44.6879946,9.784 43.8186699,10.1253299 43.168,10.808 C42.5173301,11.4906701 42.1280006,12.4719936 42,13.752 L49.232,13.752 C49.1893331,12.4506602 48.8693363,11.4640034 48.272,10.792 C47.6746637,10.1199966 46.842672,9.784 45.776,9.784 Z M64.912,6.968 C66.2773402,6.968 67.4826614,7.29866336 68.528,7.96 C69.5733386,8.62133664 70.3893304,9.55999392 70.976,10.776 C71.5626696,11.9920061 71.856,13.4106586 71.856,15.032 C71.856,16.6533414 71.5626696,18.0879938 70.976,19.336 C70.3893304,20.5840062 69.5680053,21.5493299 68.512,22.232 C67.4559947,22.9146701 66.2560067,23.256 64.912,23.256 C63.7813277,23.256 62.7733378,23.0106691 61.888,22.52 C61.0026622,22.0293309 60.3253357,21.346671 59.856,20.472 L59.856,21.272 C59.856,21.8480029 59.6746685,22.306665 59.312,22.648 C58.9493315,22.989335 58.4693363,23.16 57.872,23.16 C57.2746637,23.16 56.8000018,22.989335 56.448,22.648 C56.0959982,22.306665 55.92,21.8480029 55.92,21.272 L55.92,2.136 C55.92,1.58133056 56.1066648,1.13333504 56.48,0.792 C56.8533352,0.45066496 57.3386637,0.28 57.936,0.28 C58.5333363,0.28 59.0133315,0.4399984 59.376,0.76 C59.7386685,1.0800016 59.92,1.51733056 59.92,2.072 L59.92,9.624 C60.3893357,8.7706624 61.061329,8.11466896 61.936,7.656 C62.810671,7.19733104 63.8026611,6.968 64.912,6.968 Z M63.856,20.152 C65.114673,20.152 66.0959965,19.7040045 66.8,18.808 C67.5040035,17.9119955 67.856,16.6533414 67.856,15.032 C67.856,13.431992 67.5093368,12.2053376 66.816,11.352 C66.1226632,10.4986624 65.1360064,10.072 63.856,10.072 C62.5759936,10.072 61.5893368,10.5039957 60.896,11.368 C60.2026632,12.2320043 59.856,13.4746586 59.856,15.096 C59.856,16.7173414 60.2026632,17.965329 60.896,18.84 C61.5893368,19.714671 62.5759936,20.152 63.856,20.152 Z M82.288,23.256 C80.687992,23.256 79.2853394,22.9253366 78.08,22.264 C76.8746606,21.6026634 75.9413366,20.6533395 75.28,19.416 C74.6186634,18.1786605 74.288,16.7386749 74.288,15.096 C74.288,13.4533251 74.6186634,12.0186728 75.28,10.792 C75.9413366,9.5653272 76.8746606,8.62133664 78.08,7.96 C79.2853394,7.29866336 80.687992,6.968 82.288,6.968 C83.888008,6.968 85.2906606,7.29866336 86.496,7.96 C87.7013394,8.62133664 88.6293301,9.5653272 89.28,10.792 C89.9306699,12.0186728 90.256,13.4533251 90.256,15.096 C90.256,16.7386749 89.9306699,18.1786605 89.28,19.416 C88.6293301,20.6533395 87.7013394,21.6026634 86.496,22.264 C85.2906606,22.9253366 83.888008,23.256 82.288,23.256 Z M82.256,20.152 C83.5573398,20.152 84.5493299,19.7253376 85.232,18.872 C85.9146701,18.0186624 86.256,16.7600083 86.256,15.096 C86.256,13.4533251 85.9146701,12.2000043 85.232,11.336 C84.5493299,10.4719957 83.5680064,10.04 82.288,10.04 C81.0079936,10.04 80.0213368,10.4719957 79.328,11.336 C78.6346632,12.2000043 78.288,13.4533251 78.288,15.096 C78.288,16.7600083 78.6293299,18.0186624 79.312,18.872 C79.9946701,19.7253376 80.9759936,20.152 82.256,20.152 Z M112.144,6.968 C113.850675,6.968 115.157329,7.4746616 116.064,8.488 C116.970671,9.5013384 117.424,11.1386554 117.424,13.4 L117.424,21.272 C117.424,21.8906698 117.237335,22.3653317 116.864,22.696 C116.490665,23.0266683 116.005336,23.192 115.408,23.192 C114.831997,23.192 114.357335,23.0266683 113.984,22.696 C113.610665,22.3653317 113.424,21.8906698 113.424,21.272 L113.424,13.4 C113.424,12.2266608 113.216002,11.3893358 112.8,10.888 C112.383998,10.3866642 111.749338,10.136 110.896,10.136 C109.850661,10.136 109.01867,10.4933298 108.4,11.208 C107.78133,11.9226702 107.472,12.8986605 107.472,14.136 L107.472,21.272 C107.472,21.8906698 107.285335,22.3653317 106.912,22.696 C106.538665,23.0266683 106.064003,23.192 105.488,23.192 C104.911997,23.192 104.432002,23.0266683 104.048,22.696 C103.663998,22.3653317 103.472,21.8906698 103.472,21.272 L103.472,13.4 C103.472,12.2266608 103.264002,11.3893358 102.848,10.888 C102.431998,10.3866642 101.797338,10.136 100.944,10.136 C99.8986614,10.136 99.072003,10.4933298 98.464,11.208 C97.855997,11.9226702 97.552,12.8986605 97.552,14.136 L97.552,21.272 C97.552,21.8906698 97.3600019,22.3653317 96.976,22.696 C96.5919981,23.0266683 96.1120029,23.192 95.536,23.192 C94.9599971,23.192 94.4853352,23.0266683 94.112,22.696 C93.7386648,22.3653317 93.552,21.8906698 93.552,21.272 L93.552,8.888 C93.552,8.29066368 93.7439981,7.8320016 94.128,7.512 C94.5120019,7.1919984 94.9919971,7.032 95.568,7.032 C96.1226694,7.032 96.5759982,7.18666512 96.928,7.496 C97.2800018,7.80533488 97.456,8.24799712 97.456,8.824 L97.456,9.592 C97.9466691,8.7386624 98.6026626,8.08800224 99.424,7.64 C100.245337,7.19199776 101.189328,6.968 102.256,6.968 C104.602678,6.968 106.170663,7.94932352 106.96,9.912 C107.429336,9.01599552 108.122662,8.301336 109.04,7.768 C109.957338,7.234664 110.991994,6.968 112.144,6.968 Z" id="Shape"></path>
        </g>
    </g>
</svg>